<?xml version="1.0" encoding="utf-8"?>
<!-- Generator: Adobe Illustrator 27.9.0, SVG Export Plug-In . SVG Version: 6.00 Build 0)  -->
<svg version="1.1" id="Layer_1" xmlns="http://www.w3.org/2000/svg" xmlns:xlink="http://www.w3.org/1999/xlink" x="0px" y="0px"
	 viewBox="0 0 233 48" style="enable-background:new 0 0 233 48;" xml:space="preserve">
<path d="M210.4,23.5l-1.7,0.5c-1.7-5.7-4.5-8.1-8.4-8.1c-2.8,0-4.7,1.8-4.7,4.7c0,2.8,2.3,4.2,8.5,6.7c5.7,2.1,8.1,4.7,8.1,9.1
	c0,6.8-5.4,11.1-14.1,11.1c-4.2,0-9-0.9-11.7-2l-0.3-9.5l1.7-0.3c2.5,6.5,5.7,8.9,9.8,8.9c3.6,0,5.5-2.5,5.5-5.1s-1.5-4-7.1-6.1
	c-5.4-1.8-9-4-9-9.7c0-5.6,4.9-10.3,13.3-10.3c4,0,7.6,0.7,9.9,1.8L210.4,23.5z M174.2,26.5c0.2-4.5-0.7-10.9-4.4-10.9
	c-3.8,0-5.8,6-5.9,11.2L174.2,26.5z M170.7,13.4c9.2,0,13.7,6.7,13.7,15.6h-20.7c-0.1,7.8,4.1,13.8,11.9,13.8c3.4,0,5.4-0.9,7.4-2.4
	l1,1.1c-2.3,3.1-7,6.1-13.3,6.1c-10.1,0-17.1-6.9-17.1-16.8C153.5,21.9,159.3,13.4,170.7,13.4 M140.8,29.8c-0.2-7-2.8-12.6-7.7-12.6
	c-1.2,0-2.1,0.2-3.5,0.7l0.4,27c0.5,0.2,1.7,0.3,2.5,0.3C137.3,45.2,140.8,38.5,140.8,29.8 M151.1,29.3c0,11.1-7,18.2-18.9,18.2
	c-4.2,0-8.6-0.7-12.4-1.6c0.3-4.5,0.3-32,0-37.2c-0.3-2.7-1.1-4-3.2-4.2l-1.4-0.1V3.2l14.6-2.7c-0.1,2.3-0.2,8.3-0.2,15.4
	c2.6-1.3,4.9-2,8.1-2C145.4,13.8,151.1,20.3,151.1,29.3 M113.8,23.3c-4.5-3-9.4-1.7-10.3,0c-0.4,5.2-0.3,13.2,0.1,17.3
	c0.2,2.7,1,3.8,3.1,4l2.8,0.3v1.8H88.7v-1.8l1.6-0.3c2-0.2,2.7-1.3,2.8-4c0.5-4.4,0.6-13.6,0-18.6c-0.1-2.9-0.8-4-2.8-4.2l-1.6-0.2
	v-1.2l14.8-2.8l-0.2,7.6c3.5-7.8,10.3-8.8,14.1-6.7L113.8,23.3z M65.3,30.5c0,8.3,2.2,15,6.7,15c4.9,0,6.3-6.6,6.3-15
	s-2.1-14.9-6.7-14.9C66.7,15.6,65.3,22,65.3,30.5 M88.8,30.4c0,9.5-6.3,17.2-17.4,17.2c-11,0-16.5-7.3-16.5-16.9
	c0-9.4,6.3-17.2,17.4-17.2C83.2,13.4,88.8,20.8,88.8,30.4 M60,14.1l-2.3,0.7C55.8,8.2,52.4,4.4,46.5,4.4h-7.7
	c-0.4,4.4-0.6,11.2-0.4,18.6l5.1-0.3c3.5,0,4.9-2.5,5.8-6.1h1.9v15.3h-1.9c-0.8-3.7-2.3-6.2-5.8-6.4l-5.1-0.1c0,5.5,0.1,10.1,0.4,13
	c0.3,4,1.5,5.9,4.4,6.3l2.8,0.3v1.8H20.9v-1.8l2.1-0.3c2.9-0.4,4.1-2.2,4.4-6.3c0.6-6.6,0.7-20.7,0-28.6c-0.3-4.2-1.5-5.9-4.4-6.2
	l-2.1-0.3V1.4H60L60,14.1z"/>
</svg>
