<?xml version="1.0" encoding="utf-8"?>
<!-- Generator: Adobe Illustrator 27.9.0, SVG Export Plug-In . SVG Version: 6.00 Build 0)  -->
<svg version="1.1" id="Layer_1" xmlns="http://www.w3.org/2000/svg" xmlns:xlink="http://www.w3.org/1999/xlink" x="0px" y="0px"
	 viewBox="0 0 233 48" style="enable-background:new 0 0 233 48;" xml:space="preserve">
<path d="M96.44,29.11v-0.3c0-6.24,2.7-10.38,6.81-10.38c4.14,0,6.71,4.04,6.71,10.75c0,6.18-2.64,10.21-6.71,10.21
	C99.08,39.39,96.61,35.58,96.44,29.11 M86.26,29.01c0.4,11.95,6.78,18.96,16.96,18.96c10.08,0,17.06-7.78,17.06-19.19
	s-6.91-19.09-17.06-19.09s-16.96,7.78-16.96,19.09V29.01z M29.01,11.28h8.21l11.65,18.53V11.28h9.35V46.8h-8.24L38.69,29.47V46.8
	h-9.68C29.01,46.8,29.01,11.28,29.01,11.28z M73.84,9.71H62.09l-1.44-9.68h37.32l-1.4,9.68H84.82v37.12H73.87V9.71H73.84z
	 M187.43,34.58c-2,8.78-7.21,12.95-15.79,12.95c-6.21,0-10.11-1.54-13.12-5.51c-2.6-3.4-3.81-7.54-3.81-12.92
	c0-11.72,6.14-18.66,16.52-18.66c8.85,0,13.72,3.84,15.89,12.52l-9.68,1.64c-0.77-3.54-2.87-5.51-5.84-5.51
	c-4.17,0-6.64,3.71-6.64,10.08s2.4,9.95,6.58,9.95c3.2,0,5.14-1.94,6.21-6.04L187.43,34.58z M188.67,11.25h9.55v13.19h8.88V11.25
	h9.55v35.58h-9.48V31.84h-8.88v14.99h-9.61L188.67,11.25L188.67,11.25z M27.47,46.8H16.36V12.28c1.44,1.64,3.47,2.57,5.61,2.64
	c2.1-0.03,4.07-0.93,5.47-2.5V46.8H27.47z M27.47,10.28c-1.44,1.74-3.37,2.84-5.47,2.84c-2.24-0.07-4.34-1.17-5.61-3.04V0.1h11.15
	v10.18H27.47z M146.38,11.25h-3.71v22.23c0,2.9-2.34,5.24-5.24,5.24c-2.9,0-5.24-2.34-5.24-5.24V11.25h-10.15v22.57
	c0,3.47,0.4,5.94,1.34,8.11c1.5,3.4,4.84,5.47,8.68,5.47c4.67,0,8.21-1.94,11.25-6.14v5.51h9.35V11.25H146.38z"/>
</svg>
