<?xml version="1.0" encoding="utf-8"?>
<!-- Generator: Adobe Illustrator 27.9.0, SVG Export Plug-In . SVG Version: 6.00 Build 0)  -->
<svg version="1.1" id="Layer_1" xmlns="http://www.w3.org/2000/svg" xmlns:xlink="http://www.w3.org/1999/xlink" x="0px" y="0px"
	 viewBox="0 0 233 48" style="enable-background:new 0 0 233 48;" xml:space="preserve">
<path d="M34.95,24.19c0,9.71-7.81,17.59-17.48,17.59S0,33.9,0,24.19S7.81,6.6,17.48,6.6S34.95,14.49,34.95,24.19 M54.09,24.19
	c0,9.13-3.92,16.54-8.74,16.54s-8.74-7.42-8.74-16.54s3.92-16.54,8.74-16.54S54.09,15.03,54.09,24.19 M61.94,24.19
	c0,8.19-1.36,14.83-3.07,14.83c-1.71,0-3.07-6.64-3.07-14.83s1.36-14.83,3.07-14.83C60.58,9.36,61.94,16,61.94,24.19 M110.13,8.12
	h0.04V7.73h-9.94l-9.2,21.71L81.78,7.77H71.06v0.39h0.04c1.83,0.43,2.72,1.01,2.72,3.22v25.79c0,2.21-0.93,2.8-2.72,3.22h-0.04v0.39
	h7.26v-0.39h-0.04c-1.83-0.43-2.72-1.01-2.72-3.22V12.89l11.84,27.88h0.66l12.19-28.66v25.71c-0.16,1.75-1.05,2.29-2.72,2.64h-0.04
	v0.39h12.66v-0.39h-0.04c-1.63-0.39-2.56-0.89-2.72-2.64V11.42l0,0C107.41,9.17,108.35,8.54,110.13,8.12 M115.92,25.2
	c0.19-4.62,1.86-7.96,4.66-8.04c0.85,0,1.59,0.31,2.14,0.85c1.2,1.17,1.75,3.57,1.67,7.18H115.92z M115.8,26.49h14.83v-0.08
	c-0.04-3.53-1.05-6.29-3.03-8.19c-1.71-1.63-4.23-2.52-6.91-2.52h-0.08c-1.4,0-3.07,0.35-4.27,0.93c-1.36,0.62-2.56,1.59-3.57,2.83
	c-1.63,2.02-2.6,4.7-2.83,7.77c0,0.08,0,0.19-0.04,0.27c0,0.08,0,0.16,0,0.27c-0.04,0.43-0.04,0.85-0.04,1.28
	c0.16,6.91,3.88,12.43,10.52,12.43c5.82,0,9.2-4.23,10.06-9.94l-0.43-0.16c-1.48,3.07-4.16,4.93-7.18,4.7
	C118.67,35.77,115.49,31.57,115.8,26.49 M147.37,35.84c-0.5,1.17-1.51,1.79-2.87,1.79c-1.36,0-2.6-0.93-3.5-2.64
	c-0.93-1.83-1.44-4.39-1.44-7.46c0-6.33,1.98-10.45,5.05-10.45c1.28,0,2.29,0.62,2.76,1.75V35.84z M157.24,40.39
	c-1.83-0.43-2.72-1.05-2.72-3.38V6.21l-11.03,3.26v0.39h0.08c1.51-0.12,2.56,0.08,3.15,0.62c0.47,0.43,0.7,1.09,0.7,2.02v4.23
	c-1.09-0.7-2.37-1.05-3.96-1.05c-3.18,0-6.1,1.32-8.19,3.77c-2.17,2.52-3.34,5.98-3.34,10.02c0,7.18,3.53,12,8.78,12
	c3.07,0,5.55-1.67,6.68-4.54v3.81h9.9v-0.39L157.24,40.39z M166.67,10.41c0-2.25-1.67-3.92-3.92-3.92c-2.21,0-3.96,1.71-3.96,3.92
	s1.75,3.92,3.96,3.92C164.96,14.33,166.67,12.66,166.67,10.41 M169.27,40.39c-1.83-0.43-2.72-1.05-2.72-3.38l0,0v-21.2l-9.9,2.83
	v0.39h0.08c2.14,0.19,2.72,0.93,2.72,3.42v18.33h9.86v-0.39L169.27,40.39z M194.59,40.39c-1.83-0.43-2.72-1.05-2.72-3.38v-21.2
	l-9.4,2.76v0.39h0.04c1.75,0.19,2.25,0.97,2.25,3.46v13.4c-0.58,1.16-1.67,1.83-2.99,1.9c-2.14,0-3.34-1.44-3.34-4.08V15.81
	l-9.9,2.83v0.39h0.08c2.14,0.19,2.72,0.93,2.72,3.42v11.34c0,0.78,0.08,1.59,0.19,2.37l0.19,0.78c0.85,2.99,3.03,4.58,6.45,4.58
	c2.91,0,5.48-1.79,6.6-4.62v3.92h9.9v-0.39L194.59,40.39z M233,40.78v-0.39h-0.04c-1.98-0.47-2.72-1.32-2.72-3.07V22.91
	c0-4.5-2.52-7.18-6.76-7.18c-3.07,0-5.67,1.79-6.68,4.54c-0.78-2.95-3.07-4.54-6.49-4.54c-2.99,0-5.32,1.55-6.29,4.23v-4.16
	l-9.9,2.72v0.39h0.08c2.1,0.19,2.72,0.93,2.72,3.38v18.48h9.24v-0.39h-0.04c-1.55-0.35-2.06-1.05-2.06-2.76V21.09
	c0.43-0.97,1.24-2.14,2.91-2.14c2.06,0,3.11,1.44,3.11,4.23v17.59h9.24v-0.39h-0.04c-1.55-0.35-2.06-1.05-2.06-2.76V22.91
	c0-0.54-0.04-1.09-0.12-1.63c0.43-1.05,1.32-2.29,3.03-2.29c2.1,0,3.11,1.4,3.11,4.23v17.59H233V40.78z"/>
</svg>
