<?xml version="1.0" encoding="utf-8"?>
<!-- Generator: Adobe Illustrator 27.9.0, SVG Export Plug-In . SVG Version: 6.00 Build 0)  -->
<svg version="1.1" id="Layer_1" xmlns="http://www.w3.org/2000/svg" xmlns:xlink="http://www.w3.org/1999/xlink" x="0px" y="0px"
	 viewBox="0 0 233 48" style="enable-background:new 0 0 233 48;" xml:space="preserve">
<g>
	<polygon points="14.91,28.68 1.44,11.75 0,11.75 0,36.21 3.46,36.21 3.46,18.66 17.28,36.56 18.41,36.56 18.41,11.75 14.91,11.75 	
		"/>
	<polygon points="25.75,36.21 41.55,36.21 41.55,33.18 29.4,33.18 29.4,24.37 38.02,24.37 38.02,21.53 29.4,21.53 29.4,14.74 
		41.55,14.74 41.55,11.71 25.75,11.71 	"/>
	<polygon points="67.88,28.8 62.09,11.75 60.81,11.75 54.91,28.83 49.55,11.75 45.75,11.75 54.21,36.56 55.34,36.56 61.32,19.67 
		67.69,36.56 68.81,36.56 77.2,11.75 73.39,11.75 	"/>
	<g>
		<path d="M95.8,32.37c-1.05,0.78-2.72,1.17-5.01,1.17c-0.66,0-1.63-0.04-2.87-0.16v-9.32l2.95-0.08c2.33,0,4,0.39,5.01,1.13
			c1.01,0.78,1.51,1.94,1.51,3.53C97.36,30.31,96.85,31.55,95.8,32.37 M87.92,14.39c0.97-0.08,2.06-0.12,3.26-0.12
			c3.18,0,4.74,1.13,4.74,3.38c0,2.56-1.71,3.84-5.16,3.84c-1.13,0-2.06-0.04-2.83-0.12V14.39z M99.76,24.72
			c-0.97-1.09-2.52-1.86-4.62-2.33c1.13-0.23,2.14-0.82,3.07-1.75s1.4-1.98,1.4-3.11c0-1.94-0.74-3.42-2.17-4.47
			s-3.5-1.55-6.14-1.55c-1.44,0-3.81,0.08-7.03,0.23v24.47h7.65c2.8,0,5.05-0.66,6.76-1.94s2.6-2.99,2.6-5.16
			C101.24,27.28,100.73,25.81,99.76,24.72"/>
	</g>
	<polygon points="124.07,33.18 111.96,33.18 111.96,24.37 120.58,24.37 120.58,21.53 111.96,21.53 111.96,14.74 124.07,14.74 
		124.07,11.75 108.27,11.75 108.27,36.21 124.07,36.21 	"/>
	<path d="M137.97,26.54l3.34-8.7l3.03,8.7H137.97z M141.97,11.36H141l-10.91,24.85h4.12l2.8-7.22h8.39l2.6,7.22h4.08L141.97,11.36z"
		/>
	<g>
		<path d="M173.08,28.41c0,1.59-0.5,2.87-1.55,3.81c-1.05,0.93-2.45,1.4-4.23,1.4c-1.71,0-3.07-0.47-4.08-1.44
			c-1.05-0.97-1.55-2.17-1.55-3.69V11.71h-3.69v17.01c0,2.52,0.82,4.5,2.45,5.86c1.63,1.36,3.92,2.06,6.91,2.06
			c2.91,0,5.2-0.7,6.91-2.1c1.67-1.4,2.52-3.3,2.52-5.79V11.71h-3.69L173.08,28.41L173.08,28.41z"/>
	</g>
	<polygon points="182.56,14.74 191.1,14.74 191.1,36.21 194.79,36.21 194.79,14.74 203.72,14.74 203.72,11.71 182.56,11.71 	"/>
	<polygon points="218.83,22.43 212.15,11.71 208.38,11.71 217,25.26 217,36.21 220.69,36.21 220.69,25.26 229.27,11.71 
		225.51,11.71 	"/>
	<g>
		<path d="M231.29,13.11v-0.54h0.31c0.19,0,0.31,0.12,0.31,0.27c0,0.16-0.12,0.27-0.31,0.27L231.29,13.11L231.29,13.11z
			 M232.11,12.84c0-0.27-0.23-0.47-0.5-0.47h-0.54v1.59h0.23V13.3h0.23l0.35,0.66h0.27l-0.39-0.7
			C231.95,13.22,232.11,13.07,232.11,12.84"/>
		<path d="M231.52,14.39c-0.66,0-1.24-0.54-1.24-1.24c0-0.7,0.54-1.24,1.24-1.24c0.66,0,1.24,0.54,1.24,1.24
			S232.22,14.39,231.52,14.39 M231.52,11.67c-0.82,0-1.48,0.66-1.48,1.48c0,0.82,0.66,1.48,1.48,1.48s1.48-0.66,1.48-1.48
			S232.34,11.67,231.52,11.67"/>
	</g>
</g>
</svg>
