<?xml version="1.0" encoding="utf-8"?>
<!-- Generator: Adobe Illustrator 27.9.0, SVG Export Plug-In . SVG Version: 6.00 Build 0)  -->
<svg version="1.1" id="Layer_1" xmlns="http://www.w3.org/2000/svg" xmlns:xlink="http://www.w3.org/1999/xlink" x="0px" y="0px"
	 viewBox="0 0 233 48" style="enable-background:new 0 0 233 48;" xml:space="preserve">
<g>
	<circle cx="74.3" cy="24" r="23.7"/>
	<path d="M111.5,18.5c0.8,0,1.5-0.2,2-0.8c0.5-0.6,0.7-1.4,0.7-2.2V6.1h4.2v9.5c0.1,1.8-0.6,3.6-1.9,4.8c-1.4,1.2-3.3,1.8-5.1,1.7
		c-1.9,0.1-3.6-0.5-5.1-1.7c-1.3-1.3-2.1-3-2-4.8V6.1h4.2v9.5c-0.1,0.8,0.2,1.6,0.7,2.2C110,18.3,110.7,18.6,111.5,18.5z M127,22
		c-1.3,0-2.5-0.2-3.6-0.7c-1.2-0.4-2.2-1.1-3.1-1.9l2.1-2.6c0.6,0.6,1.3,1,2.1,1.3c0.8,0.3,1.7,0.5,2.6,0.5c0.5,0,1-0.1,1.5-0.3
		c0.3-0.2,0.5-0.6,0.5-1c0-0.4-0.2-0.8-0.6-1c-0.7-0.4-1.4-0.7-2.2-0.9l-1-0.3c-1.2-0.3-2.3-0.9-3.2-1.7c-0.8-0.8-1.2-1.9-1.1-2.9
		c0-0.9,0.3-1.8,0.8-2.6c0.6-0.8,1.3-1.3,2.2-1.7c1-0.4,2.1-0.6,3.2-0.6c1.2,0,2.3,0.2,3.4,0.7c1.1,0.4,2.1,1,2.9,1.8l-2.2,2.7
		c-0.6-0.5-1.3-0.9-2-1.2c-0.7-0.4-1.5-0.5-2.2-0.5c-0.5,0-1,0.1-1.4,0.3c-0.4,0.2-0.6,0.6-0.5,1c0,0.4,0.2,0.7,0.5,1
		c0.6,0.4,1.2,0.6,1.8,0.8l1.2,0.3c1.4,0.3,2.6,0.9,3.6,1.9c0.7,0.8,1.1,1.8,1.1,2.8c0,0.9-0.3,1.9-0.8,2.6
		c-0.6,0.8-1.3,1.4-2.2,1.7C129.1,21.9,128,22.1,127,22z M146.1,21.7l-1-2.9h-5.8l-1,3h-4.2l5.7-15.6h4.9l5.6,15.6L146.1,21.7
		L146.1,21.7z M140.2,15.7h3.7l-1.8-5.5L140.2,15.7z M109.1,41.8V29.6h-4.6v-3.4H118v3.4h-4.6v12.1H109.1L109.1,41.8z M127,42.2
		c-1.5,0-2.9-0.3-4.1-1c-1.2-0.7-2.2-1.7-2.9-2.9c-0.7-1.3-1.1-2.8-1.1-4.1c0-1.1,0.2-2.2,0.6-3.3c0.4-1,1-1.9,1.7-2.6
		c0.7-0.7,1.6-1.3,2.6-1.7c2.1-0.8,4.3-0.8,6.5,0c1,0.4,1.9,1,2.6,1.7c0.7,0.7,1.3,1.6,1.7,2.6c0.4,1,0.7,2.2,0.7,3.3
		c0,1.5-0.3,3-1.1,4.1c-0.7,1.2-1.7,2.2-2.9,2.9C129.9,41.8,128.4,42.2,127,42.2z M127,38.6c0.7,0,1.4-0.2,2-0.6
		c0.6-0.4,1-1,1.3-1.6c0.3-0.8,0.5-1.6,0.5-2.4c0-0.8-0.2-1.7-0.5-2.4c-0.3-0.7-0.7-1.3-1.3-1.7c-1.2-0.8-2.8-0.8-3.9,0
		c-0.6,0.4-1.1,1-1.3,1.7c-0.3,0.8-0.5,1.6-0.5,2.4s0.2,1.7,0.5,2.4c0.3,0.7,0.8,1.2,1.3,1.6C125.6,38.4,126.3,38.6,127,38.6
		L127,38.6L127,38.6z M137.5,41.8V26.2h6.2c1.4,0,2.9,0.3,4.1,1c1.2,0.7,2.2,1.6,2.8,2.8c1.4,2.6,1.4,5.6,0,8.1
		c-0.7,1.2-1.6,2.1-2.8,2.8c-1.3,0.7-2.7,1-4.1,1H137.5z M141.8,38.4h2c1,0,2-0.4,2.7-1.2c0.7-0.9,1-2.1,1-3.2
		c0.1-1.2-0.3-2.3-1-3.2c-0.6-0.8-1.6-1.3-2.7-1.2h-2V38.4z M164.2,41.8l-1-3h-5.8l-1,3h-4.2l5.7-15.7h4.9l5.7,15.7H164.2z
		 M158.4,35.7h3.7l-1.9-5.4L158.4,35.7z M176.9,36.1v5.6h-4.3v-5.6l-5.5-10h4.8l2.9,6.3l2.9-6.2h4.8L176.9,36.1z"/>
</g>
</svg>
